<?xml version="1.0" encoding="UTF-8"?>
<!-- Generator: Adobe Illustrator 17.1.0, SVG Export Plug-In . SVG Version: 6.00 Build 0)  -->
<svg width="432.6px" height="88.6px" enable-background="new 0 0 432.6 88.6" version="1.1" viewBox="0 0 432.6 88.6" xml:space="preserve" xmlns="http://www.w3.org/2000/svg" xmlns:xlink="http://www.w3.org/1999/xlink">
<g fill="#fff">
	
		<g fill="#fff">
			<defs>
				<rect id="SVGID_1_" x="-1.4" width="434" height="88.6"/>
			</defs>
			<clipPath id="SVGID_2_">
				<use overflow="visible" xlink:href="#SVGID_1_"/>
			</clipPath>
			<path d="m83.2 88.6h-0.1c-1.7-0.1-3-0.9-3.9-2.4-0.2-0.3-0.3-0.6-0.4-0.8-0.9-1.7-1-2-3.7-2.8-3.7-1.1-9.9-2.4-17-4-10.7-2.3-22.9-4.9-32.1-7.9-13.6-4.5-22-11-24.8-19.5-3.4-10.1 2.5-19 3.1-19.9 11.1-16 35.2-26.3 69.9-29.9 13.7-1.4 23.8-1.4 28.1-1.4 1.2 0 2.4 0.5 3.2 1.3 0.7 0.7 1.1 1.7 1.1 2.7 0 0.5-0.1 0.9-0.3 1.4l-6 15.5c-0.3 0.9-1.4 2.6-3.3 2.6h-0.2c-1.7-0.1-2.3-0.8-2.8-1.6-0.2-0.4-0.5-0.7-1-1-2.6-1.6-7.4-2.4-14.2-2.4-3.4 0-7.3 0.2-11.6 0.6-23.5 2.6-51 11.8-51 28.9 0.4 5.5 4.3 8.8 8.1 11.3 7.7 5.1 26.3 9.9 39.9 13.4 5.5 1.4 10.3 2.6 13.6 3.7 2.8 0.9 5.2 2 6.5 3 2.9 2.2 3 5 2.9 5.8-0.3 1.9-1.9 3.4-4 3.4" clip-path="url(#SVGID_2_)" fill="#fff"/>
		
	
	
		
			<defs>
				<path id="SVGID_3_" d="m102.3 1.3c-5.2 0-14.9 0.1-27.9 1.4-35.8 3.6-58.5 14.2-69 29.3-3.2 4.6-13.5 26.1 21 37.5 15.4 5.1 39.8 9.1 49.1 11.9 3.6 1.1 3.5 1.7 4.9 4.2 0.6 1.1 1.5 1.7 2.8 1.8 1.4 0 2.6-1 2.7-2.5 0.1-0.9-0.2-3-2.4-4.7-1.1-0.9-3.4-1.9-6.1-2.8-11.6-3.6-42.8-10-53.8-17.2-4.1-2.7-8.2-6.3-8.6-12.3 0-17.2 25.7-27.3 52.2-30.2 17.5-1.5 23.9 0.3 26.7 2 1.9 1.2 1.2 2.3 3.2 2.4 1.6 0.1 2.2-1.8 2.2-1.8l6-15.5c0.1-0.3 0.2-0.6 0.2-0.9-0.1-1.4-1.5-2.6-3.2-2.6z"/>
			</defs>
			<use fill="#ffffff" overflow="visible" xlink:href="#SVGID_3_"/>
			<clipPath id="SVGID_4_">
				<use overflow="visible" xlink:href="#SVGID_3_"/>
			</clipPath>
			<rect x="-8.1" y="1.3" width="113.4" height="86.1" clip-path="url(#SVGID_4_)" fill="#fff"/>
		
	
	
		
			<defs>
				<rect id="SVGID_5_" x="-1.4" width="434" height="88.6"/>
			</defs>
			<clipPath id="SVGID_6_">
				<use overflow="visible" xlink:href="#SVGID_5_"/>
			</clipPath>
			<path d="m67.7 62.1c-9.1 0-16.6-7.4-16.6-16.6 0-9.1 7.4-16.6 16.6-16.6 9.1 0 16.6 7.4 16.6 16.6-0.1 9.2-7.5 16.6-16.6 16.6" clip-path="url(#SVGID_6_)" fill="#fff"/>
		
	
	
		
			<defs>
				<path id="SVGID_7_" d="m52.4 45.5c0 8.4 6.8 15.3 15.3 15.3 8.4 0 15.3-6.8 15.3-15.3 0-8.4-6.8-15.3-15.3-15.3-8.5 0.1-15.3 6.9-15.3 15.3"/>
			</defs>
			<use fill="#ffffff" overflow="visible" xlink:href="#SVGID_7_"/>
			<clipPath id="SVGID_8_">
				<use overflow="visible" xlink:href="#SVGID_7_"/>
			</clipPath>
			<rect x="52.4" y="30.3" width="30.6" height="30.6" clip-path="url(#SVGID_8_)" fill="#fff"/>
		</g>
	
	<polygon points="135.5 45.6 130.9 45.6 123 32.9 122.7 32.3 122.9 33.5 122.9 45.6 118.4 45.6 118.4 26.7 124.2 26.7 131 37.3 131.4 38 131.1 36.7 131.1 26.7 135.5 26.8"/>
	
		<g fill="#fff">
			<defs>
				<rect id="SVGID_9_" x="-1.4" width="434" height="88.6"/>
			</defs>
			<clipPath id="SVGID_10_">
				<use overflow="visible" xlink:href="#SVGID_9_"/>
			</clipPath>
			<path d="m154.4 38.5c0 2.3-0.7 4.2-2 5.5-1.4 1.3-3.3 2-5.7 2-2.5 0-4.4-0.7-5.7-2-1.4-1.3-2-3.2-2-5.5 0-2.4 0.7-4.2 2.1-5.5s3.3-2 5.7-2c2.5 0 4.4 0.7 5.7 2 1.2 1.3 1.9 3.1 1.9 5.5m-5.6 3.4c0.3-0.4 0.5-0.8 0.7-1.3 0.1-0.5 0.2-1.2 0.2-2.1 0-0.8-0.1-1.5-0.2-2.1-0.2-0.6-0.4-1-0.6-1.4-0.3-0.3-0.6-0.6-1-0.7s-0.8-0.2-1.2-0.2-0.8 0.1-1.2 0.2c-0.3 0.1-0.7 0.4-1 0.7s-0.5 0.8-0.7 1.4-0.2 1.3-0.2 2.2c0 0.8 0.1 1.4 0.2 2s0.4 1 0.6 1.4c0.3 0.3 0.6 0.6 1 0.7 0.4 0.2 0.8 0.2 1.3 0.2 0.4 0 0.8-0.1 1.2-0.2 0.3-0.2 0.6-0.5 0.9-0.8" clip-path="url(#SVGID_10_)" fill="#fff"/>
		
		
			<defs>
				<rect id="SVGID_11_" x="-1.4" width="434" height="88.6"/>
			</defs>
			<clipPath id="SVGID_12_">
				<use overflow="visible" xlink:href="#SVGID_11_"/>
			</clipPath>
			<path d="m183.9 43.9c0 1.3-0.2 2.5-0.6 3.4s-0.9 1.6-1.6 2.1-1.5 0.9-2.5 1.1-2.1 0.3-3.3 0.3c-1 0-2-0.1-2.9-0.2-1-0.1-1.8-0.3-2.5-0.4v-3.6h0.6c0.6 0.2 1.2 0.4 2 0.6s1.5 0.3 2.2 0.3c0.8 0 1.5-0.1 2-0.2 0.5-0.2 0.9-0.4 1.2-0.7s0.4-0.6 0.6-1c0.1-0.4 0.2-0.9 0.2-1.5v-0.3c-0.5 0.5-1.2 0.8-1.8 1.1-0.7 0.3-1.4 0.4-2.2 0.4-2 0-3.5-0.6-4.6-1.8s-1.6-3-1.6-5.5c0-1.2 0.2-2.2 0.5-3s0.8-1.6 1.4-2.2 1.3-1.1 2.1-1.4 1.6-0.5 2.5-0.5c0.8 0 1.5 0.1 2.1 0.3s1.2 0.4 1.7 0.8l0.2-0.6h4.4v12.5zm-4.6-2.8v-6.4c-0.3-0.1-0.6-0.2-1-0.3s-0.7-0.1-1-0.1c-1.2 0-2.1 0.3-2.7 1s-0.9 1.6-0.9 2.9c0 1.4 0.3 2.3 0.8 2.9 0.5 0.5 1.3 0.8 2.3 0.8 0.5 0 0.9-0.1 1.3-0.2l1.2-0.6" clip-path="url(#SVGID_12_)" fill="#fff"/>
		
		
			<defs>
				<rect id="SVGID_13_" x="-1.4" width="434" height="88.6"/>
			</defs>
			<clipPath id="SVGID_14_">
				<use overflow="visible" xlink:href="#SVGID_13_"/>
			</clipPath>
			<path d="m202 39.3h-10.4c0.1 1.1 0.5 2 1.3 2.6s1.9 0.9 3.4 0.9c1 0 1.9-0.2 2.8-0.5s1.6-0.7 2.1-1.1h0.5v3.7c-1 0.4-2 0.7-2.9 0.9s-1.9 0.3-3 0.3c-2.8 0-5-0.6-6.5-1.9s-2.3-3.1-2.3-5.5c0-2.3 0.7-4.2 2.2-5.6 1.4-1.4 3.4-2.1 5.9-2.1 2.3 0 4 0.6 5.2 1.7 1.2 1.2 1.7 2.9 1.7 5v1.6zm-4.5-2.7c0-1-0.3-1.7-0.7-2.2s-1.1-0.7-2.1-0.7c-0.9 0-1.6 0.2-2.2 0.7s-0.9 1.2-0.9 2.2h5.9z" clip-path="url(#SVGID_14_)" fill="#fff"/>
		
		
			<defs>
				<rect id="SVGID_15_" x="-1.4" width="434" height="88.6"/>
			</defs>
			<clipPath id="SVGID_16_">
				<use overflow="visible" xlink:href="#SVGID_15_"/>
			</clipPath>
			<path d="m218.4 41c0 1.5-0.7 2.7-2 3.5-1.3 0.9-3.1 1.3-5.4 1.3-1.3 0-2.4-0.1-3.4-0.4-1-0.2-1.9-0.5-2.5-0.8v-3.7h0.4c0.2 0.2 0.5 0.3 0.8 0.5s0.7 0.4 1.3 0.6c0.5 0.2 1 0.4 1.6 0.5s1.2 0.2 1.9 0.2c0.9 0 1.6-0.1 2-0.3s0.6-0.5 0.6-0.9c0-0.3-0.1-0.6-0.4-0.8-0.2-0.2-0.7-0.3-1.4-0.4-0.3-0.1-0.8-0.2-1.4-0.3s-1.1-0.2-1.6-0.3c-1.3-0.3-2.3-0.9-2.9-1.6s-0.9-1.6-0.9-2.7c0-1.4 0.6-2.5 1.9-3.4s3.1-1.4 5.3-1.4c1.1 0 2.1 0.1 3 0.3 1 0.2 1.7 0.4 2.3 0.7v3.6h-0.4c-0.7-0.5-1.4-0.8-2.3-1.1s-1.7-0.4-2.6-0.4c-0.7 0-1.3 0.1-1.9 0.3-0.5 0.2-0.7 0.5-0.7 0.9 0 0.3 0.1 0.6 0.3 0.8s0.8 0.3 1.6 0.5l1.5 0.3c0.5 0.1 1.1 0.2 1.6 0.3 1.2 0.3 2.1 0.8 2.7 1.5 0.7 0.9 1 1.7 1 2.7" clip-path="url(#SVGID_16_)" fill="#fff"/>
		
		
			<defs>
				<rect id="SVGID_17_" x="-1.4" width="434" height="88.6"/>
			</defs>
			<clipPath id="SVGID_18_">
				<use overflow="visible" xlink:href="#SVGID_17_"/>
			</clipPath>
			<rect x="250" y="25.9" width="4.6" height="19.7" clip-path="url(#SVGID_18_)" fill="#fff"/>
		
		
			<defs>
				<rect id="SVGID_19_" x="-1.4" width="434" height="88.6"/>
			</defs>
			<clipPath id="SVGID_20_">
				<use overflow="visible" xlink:href="#SVGID_19_"/>
			</clipPath>
			<path d="m263.5 29.3h-4.8v-3.5h4.8v3.5zm-0.1 16.3h-4.6v-14.2h4.6v14.2z" clip-path="url(#SVGID_20_)" fill="#fff"/>
		
		
			<defs>
				<rect id="SVGID_21_" x="-1.4" width="434" height="88.6"/>
			</defs>
			<clipPath id="SVGID_22_">
				<use overflow="visible" xlink:href="#SVGID_21_"/>
			</clipPath>
			<path d="m299.9 45.6h-4.6v-1.5c-0.8 0.6-1.5 1.1-2.2 1.4s-1.5 0.4-2.4 0.4c-1.7 0-3.1-0.7-4.1-2s-1.6-3.1-1.6-5.4c0-1.2 0.2-2.3 0.5-3.2s0.8-1.7 1.4-2.4c0.6-0.6 1.3-1.1 2.1-1.5 0.8-0.3 1.6-0.5 2.5-0.5 0.8 0 1.5 0.1 2.1 0.3s1.1 0.4 1.7 0.7v-6h4.6v19.7zm-4.5-4v-7c-0.3-0.1-0.7-0.2-1-0.3-0.4-0.1-0.7-0.1-1-0.1-1.2 0-2.1 0.4-2.7 1.1s-0.9 1.8-0.9 3.1c0 1.4 0.2 2.4 0.7 3s1.3 0.9 2.3 0.9c0.4 0 0.9-0.1 1.3-0.2 0.5 0 0.9-0.2 1.3-0.5" clip-path="url(#SVGID_22_)" fill="#fff"/>
		
		
			<defs>
				<rect id="SVGID_23_" x="-1.4" width="434" height="88.6"/>
			</defs>
			<clipPath id="SVGID_24_">
				<use overflow="visible" xlink:href="#SVGID_23_"/>
			</clipPath>
			<path d="m318.2 39.3h-10.4c0.1 1.1 0.5 2 1.3 2.6s1.9 0.9 3.4 0.9c1 0 1.9-0.2 2.8-0.5s1.6-0.7 2.1-1.1h0.5v3.7c-1 0.4-2 0.7-2.9 0.9s-1.9 0.3-3 0.3c-2.8 0-5-0.6-6.5-1.9s-2.3-3.1-2.3-5.5c0-2.3 0.7-4.2 2.2-5.6 1.4-1.4 3.4-2.1 5.9-2.1 2.3 0 4 0.6 5.2 1.7 1.2 1.2 1.7 2.9 1.7 5v1.6zm-4.5-2.7c0-1-0.3-1.7-0.7-2.2-0.5-0.5-1.1-0.7-2.1-0.7-0.9 0-1.6 0.2-2.2 0.7s-0.9 1.2-1 2.2h6z" clip-path="url(#SVGID_24_)" fill="#fff"/>
		
		
			<defs>
				<rect id="SVGID_25_" x="-1.4" width="434" height="88.6"/>
			</defs>
			<clipPath id="SVGID_26_">
				<use overflow="visible" xlink:href="#SVGID_25_"/>
			</clipPath>
			<path d="m346.9 38.5c0 2.3-0.7 4.2-2 5.5-1.4 1.3-3.3 2-5.7 2-2.5 0-4.4-0.7-5.7-2-1.4-1.3-2-3.2-2-5.5 0-2.4 0.7-4.2 2.1-5.5s3.3-2 5.7-2c2.5 0 4.4 0.7 5.8 2 1.1 1.3 1.8 3.1 1.8 5.5m-5.6 3.4c0.3-0.4 0.5-0.8 0.7-1.3 0.1-0.5 0.2-1.2 0.2-2.1 0-0.8-0.1-1.5-0.2-2.1-0.2-0.6-0.4-1-0.6-1.4-0.3-0.3-0.6-0.6-1-0.7s-0.8-0.2-1.2-0.2-0.8 0.1-1.2 0.2c-0.3 0.1-0.7 0.4-1 0.7s-0.5 0.8-0.7 1.4-0.2 1.3-0.2 2.2c0 0.8 0.1 1.4 0.2 2s0.4 1 0.6 1.4c0.3 0.3 0.6 0.6 1 0.7 0.4 0.2 0.8 0.2 1.3 0.2 0.4 0 0.8-0.1 1.2-0.2 0.3-0.2 0.6-0.5 0.9-0.8" clip-path="url(#SVGID_26_)" fill="#fff"/>
		
		
			<defs>
				<rect id="SVGID_27_" x="-1.4" width="434" height="88.6"/>
			</defs>
			<clipPath id="SVGID_28_">
				<use overflow="visible" xlink:href="#SVGID_27_"/>
			</clipPath>
			<path d="m377.8 38.3c0 2.2-0.6 4.1-1.8 5.5s-2.8 2.1-4.6 2.1c-0.8 0-1.5-0.1-2.1-0.3s-1.2-0.4-1.7-0.7l-0.2 0.7h-4.4v-19.7h4.6v7c0.7-0.6 1.4-1 2.1-1.4 0.7-0.3 1.6-0.5 2.5-0.5 1.8 0 3.2 0.6 4.1 1.9 1 1.3 1.5 3.1 1.5 5.4m-4.7 0.1c0-1.3-0.2-2.2-0.6-2.9s-1.2-1-2.3-1c-0.4 0-0.9 0.1-1.3 0.2-0.5 0.1-0.9 0.3-1.3 0.6v7.1c0.3 0.1 0.6 0.2 0.9 0.2 0.3 0.1 0.7 0.1 1.1 0.1 1.2 0 2.1-0.4 2.7-1.1 0.5-0.8 0.8-1.8 0.8-3.2" clip-path="url(#SVGID_28_)" fill="#fff"/>
		
		
			<defs>
				<rect id="SVGID_29_" x="-1.4" width="434" height="88.6"/>
			</defs>
			<clipPath id="SVGID_30_">
				<use overflow="visible" xlink:href="#SVGID_29_"/>
			</clipPath>
			<path d="m431.8 45.6h-4.6v-1.5c-0.8 0.6-1.5 1.1-2.2 1.4s-1.5 0.4-2.4 0.4c-1.7 0-3.1-0.7-4.1-2s-1.5-3.1-1.5-5.4c0-1.2 0.2-2.3 0.5-3.2 0.4-0.9 0.8-1.7 1.4-2.4 0.6-0.6 1.3-1.1 2.1-1.5 0.8-0.3 1.6-0.5 2.5-0.5s1.6 0.1 2.1 0.3 1.1 0.4 1.7 0.7v-6h4.6v19.7zm-4.5-4v-7c-0.3-0.1-0.7-0.2-1-0.3-0.4-0.1-0.7-0.1-1-0.1-1.2 0-2.1 0.4-2.7 1.1s-0.9 1.8-0.9 3.1c0 1.4 0.2 2.4 0.7 3s1.2 0.9 2.3 0.9c0.4 0 0.8-0.1 1.3-0.2 0.5 0 0.9-0.2 1.3-0.5" clip-path="url(#SVGID_30_)" fill="#fff"/>
		
		
			<defs>
				<rect id="SVGID_31_" x="-1.4" width="434" height="88.6"/>
			</defs>
			<clipPath id="SVGID_32_">
				<use overflow="visible" xlink:href="#SVGID_31_"/>
			</clipPath>
			<path d="m280.6 32.3c-0.9-0.9-2.1-1.3-3.6-1.3-0.9 0-1.7 0.2-2.5 0.5s-1.5 0.8-2.3 1.4v-1.6h-2.3c-1 0-2.2 0.9-2.2 2.3v11.9h4.6v-10c0.5-0.3 1-0.5 1.4-0.6s0.8-0.2 1.3-0.2c0.6 0 1 0.1 1.4 0.2 0.3 0.1 0.6 0.4 0.7 0.7s0.2 0.7 0.3 1.3 0.1 1.1 0.1 1.7v7h4.6v-9.2c-0.2-1.9-0.6-3.2-1.5-4.1" clip-path="url(#SVGID_32_)" fill="#fff"/>
		
		
			<defs>
				<rect id="SVGID_33_" x="-1.4" width="434" height="88.6"/>
			</defs>
			<clipPath id="SVGID_34_">
				<use overflow="visible" xlink:href="#SVGID_33_"/>
			</clipPath>
			<path d="m412.5 32.3c-0.9-0.9-2.1-1.3-3.6-1.3-0.9 0-1.7 0.2-2.5 0.5s-1.5 0.8-2.3 1.4v-1.6h-2.3c-1 0-2.2 0.9-2.2 2.3v11.9h4.6v-10c0.5-0.3 1-0.5 1.4-0.6s0.8-0.2 1.3-0.2c0.6 0 1 0.1 1.4 0.2 0.3 0.1 0.6 0.4 0.7 0.7s0.2 0.7 0.3 1.3 0.1 1.1 0.1 1.7v7h4.6v-9.2c-0.2-1.9-0.6-3.2-1.5-4.1" clip-path="url(#SVGID_34_)" fill="#fff"/>
		
		
			<defs>
				<rect id="SVGID_35_" x="-1.4" width="434" height="88.6"/>
			</defs>
			<clipPath id="SVGID_36_">
				<use overflow="visible" xlink:href="#SVGID_35_"/>
			</clipPath>
			<path d="m245.5 36.8c-0.7-0.8-1.7-1.3-2.9-1.5v-0.1c0.9-0.4 1.6-0.9 2-1.6 0.5-0.7 0.7-1.5 0.7-2.4 0-0.8-0.2-1.5-0.5-2.1s-0.9-1.1-1.6-1.5-1.4-0.6-2.1-0.7-1.8-0.1-3.3-0.1h-5c-1.2 0-2.2 1-2.3 2.2v16.7h8.2c1.4 0 2.5-0.1 3.4-0.3s1.7-0.6 2.4-1.2c0.6-0.5 1.1-1.1 1.5-1.8s0.6-1.5 0.6-2.4c0-1.5-0.4-2.5-1.1-3.2m-10.2-6.6h0.5 2.2c0.5 0 1 0.1 1.3 0.2 0.4 0.2 0.7 0.4 0.8 0.7 0.2 0.3 0.2 0.6 0.2 0.9 0 0.4-0.1 0.8-0.2 1.1s-0.4 0.6-0.9 0.8c-0.3 0.1-0.7 0.2-1.3 0.3h-2-0.8l0.2-4zm6 10.7c-0.2 0.4-0.5 0.6-1 0.8s-1 0.3-1.6 0.3h-2.9-0.3v-4.7h1.1 2.1c0.7 0 1.2 0.1 1.6 0.2 0.6 0.2 1 0.4 1.2 0.7s0.3 0.8 0.3 1.4c-0.2 0.6-0.3 1-0.5 1.3" clip-path="url(#SVGID_36_)" fill="#fff"/>
		
		
			<defs>
				<rect id="SVGID_37_" x="-1.4" width="434" height="88.6"/>
			</defs>
			<clipPath id="SVGID_38_">
				<use overflow="visible" xlink:href="#SVGID_37_"/>
			</clipPath>
			<path d="m166.9 31.3h-0.5c-0.6 0-1.3 0.1-2 0.4s-1.6 0.9-2.6 1.7v-2.1h-2.3c-1.2 0-2.2 1-2.2 2.3v11.9h4.6v-9.5c0.6-0.2 1.1-0.3 1.6-0.4s1.1-0.1 1.7-0.1c0.3 0 0.6 0 1.1 0.1 0.4 0 0.7 0.1 0.9 0.1h0.4v-4.3c-0.3-0.1-0.5-0.1-0.7-0.1" clip-path="url(#SVGID_38_)" fill="#fff"/>
		
		
			<defs>
				<rect id="SVGID_39_" x="-1.4" width="434" height="88.6"/>
			</defs>
			<clipPath id="SVGID_40_">
				<use overflow="visible" xlink:href="#SVGID_39_"/>
			</clipPath>
			<path d="m329.5 25.8c-0.5-0.1-1.2-0.1-1.8-0.1-1.9 0-3.3 0.4-4.2 1.3s-1.4 2.2-1.4 3.9v0.4h-1.9v3.1h1.9v11.1h2.3c1.3 0 2.3-1 2.3-2.3v-8.8h3.4v-3.1h-3.5v-0.1c0-0.9 0.2-1.5 0.5-1.9 0.3-0.3 0.9-0.5 1.8-0.5 0.4 0 0.7 0 1 0.1s0.6 0.1 0.8 0.2h0.3v-3.1c-0.5-0.1-1-0.1-1.5-0.2" clip-path="url(#SVGID_40_)" fill="#fff"/>
		
		
			<defs>
				<rect id="SVGID_41_" x="-1.4" width="434" height="88.6"/>
			</defs>
			<clipPath id="SVGID_42_">
				<use overflow="visible" xlink:href="#SVGID_41_"/>
			</clipPath>
			<path d="m393 45.6c1.3 0 2.3-1 2.3-2.3v-11.9h-4.6v10.1c-0.4 0.3-0.9 0.5-1.4 0.6s-0.9 0.2-1.3 0.2c-0.6 0-1-0.1-1.4-0.2-0.3-0.1-0.6-0.4-0.7-0.7-0.2-0.3-0.3-0.7-0.3-1.2s-0.1-1.1-0.1-1.8v-7h-4.5v9.2c0 1.8 0.4 3.1 1.3 4 0.8 0.9 2.1 1.3 3.6 1.3 1 0 1.8-0.2 2.5-0.5s1.5-0.8 2.3-1.5v1.6c0 0.1 2.3 0.1 2.3 0.1z" clip-path="url(#SVGID_42_)" fill="#fff"/>
		
		
			<defs>
				<rect id="SVGID_43_" x="-1.4" width="434" height="88.6"/>
			</defs>
			<clipPath id="SVGID_44_">
				<use overflow="visible" xlink:href="#SVGID_43_"/>
			</clipPath>
			<path d="m359.9 31.3h-0.5c-0.6 0-1.3 0.1-2 0.4s-1.6 0.9-2.6 1.7v-2.1h-2.3c-1.2 0-2.2 1-2.2 2.3v11.9h4.6v-9.5c0.6-0.2 1.1-0.3 1.6-0.4s1.1-0.1 1.7-0.1c0.3 0 0.6 0 1.1 0.1 0.4 0 0.7 0.1 0.9 0.1h0.4v-4.3c-0.3-0.1-0.5-0.1-0.7-0.1" clip-path="url(#SVGID_44_)" fill="#fff"/>
		
		
			<defs>
				<rect id="SVGID_45_" x="-1.4" width="434" height="88.6"/>
			</defs>
			<clipPath id="SVGID_46_">
				<use overflow="visible" xlink:href="#SVGID_45_"/>
			</clipPath>
			<path d="m129.6 66.1c0 0.6-0.1 1.2-0.4 1.7-0.3 0.6-0.7 1.1-1.1 1.5-0.5 0.4-1.2 0.8-1.9 1s-1.6 0.4-2.6 0.4c-1.1 0-2.1-0.1-2.9-0.3-0.9-0.2-1.7-0.5-2.6-0.9v-2.5h0.1c0.8 0.6 1.6 1.1 2.6 1.5 1 0.3 1.9 0.5 2.8 0.5 1.2 0 2.2-0.2 2.9-0.7s1-1.1 1-1.9c0-0.7-0.2-1.2-0.5-1.5s-0.8-0.6-1.5-0.7c-0.5-0.1-1.1-0.2-1.6-0.3-0.6-0.1-1.2-0.2-1.9-0.3-1.3-0.3-2.3-0.8-3-1.4-0.6-0.7-1-1.6-1-2.7 0-1.3 0.5-2.3 1.6-3.1s2.4-1.2 4.1-1.2c1.1 0 2 0.1 2.9 0.3s1.7 0.5 2.4 0.7v2.4h-0.1c-0.6-0.5-1.3-0.9-2.3-1.2-0.9-0.3-1.9-0.5-2.9-0.5-1.1 0-1.9 0.2-2.6 0.7-0.7 0.4-1 1-1 1.7 0 0.6 0.2 1.1 0.5 1.5s0.9 0.6 1.7 0.8c0.4 0.1 1.1 0.2 1.8 0.3 0.8 0.1 1.5 0.3 2 0.4 1.1 0.3 2 0.7 2.5 1.3 0.7 0.6 1 1.4 1 2.5" clip-path="url(#SVGID_46_)" fill="#fff"/>
		
		
			<defs>
				<rect id="SVGID_47_" x="-1.4" width="434" height="88.6"/>
			</defs>
			<clipPath id="SVGID_48_">
				<use overflow="visible" xlink:href="#SVGID_47_"/>
			</clipPath>
			<polygon points="143.5 59.1 136.9 74.6 134.9 74.6 137 69.9 132.5 59.1 134.6 59.1 138.1 67.5 141.6 59.1" clip-path="url(#SVGID_48_)" fill="#fff"/>
		
		
			<defs>
				<rect id="SVGID_49_" x="-1.4" width="434" height="88.6"/>
			</defs>
			<clipPath id="SVGID_50_">
				<use overflow="visible" xlink:href="#SVGID_49_"/>
			</clipPath>
			<path d="m146.7 60c0-0.5 0.4-0.9 0.9-0.9h1v1.3c0.6-0.5 1.2-0.9 1.8-1.2s1.3-0.4 2-0.4c1.2 0 2.1 0.4 2.8 1.1 0.6 0.7 1 1.8 1 3.2v7.3h-1.9v-6.4c0-0.5 0-1-0.1-1.5s-0.2-0.8-0.3-1.1c-0.2-0.3-0.4-0.5-0.7-0.6s-0.7-0.2-1.2-0.2-1.1 0.1-1.6 0.4c-0.6 0.3-1.1 0.6-1.6 1v8.4h-1.9v-10.4z" clip-path="url(#SVGID_50_)" fill="#fff"/>
		
		
			<defs>
				<rect id="SVGID_51_" x="-1.4" width="434" height="88.6"/>
			</defs>
			<clipPath id="SVGID_52_">
				<use overflow="visible" xlink:href="#SVGID_51_"/>
			</clipPath>
			<path d="m168.8 67.2c0 1-0.4 1.9-1.3 2.5-0.9 0.7-2 1-3.5 1-0.8 0-1.6-0.1-2.3-0.3s-1.3-0.4-1.8-0.6v-2.1h0.1c0.6 0.5 1.3 0.8 2 1.1s1.4 0.4 2.1 0.4c0.8 0 1.5-0.1 2-0.4s0.7-0.7 0.7-1.3c0-0.4-0.1-0.8-0.4-1s-0.7-0.4-1.5-0.6c-0.3-0.1-0.6-0.1-1.1-0.2l-1.2-0.3c-1-0.3-1.7-0.7-2.1-1.2s-0.6-1.1-0.6-1.9c0-0.5 0.1-0.9 0.3-1.3s0.5-0.8 0.9-1.1 0.9-0.6 1.4-0.8c0.6-0.2 1.2-0.3 2-0.3 0.7 0 1.4 0.1 2.1 0.2 0.7 0.2 1.3 0.4 1.7 0.6v2h-0.1c-0.5-0.4-1.1-0.7-1.8-0.9s-1.4-0.4-2-0.4c-0.7 0-1.3 0.1-1.8 0.4s-0.7 0.7-0.7 1.2 0.1 0.8 0.4 1 0.7 0.4 1.4 0.6c0.4 0.1 0.7 0.2 1.2 0.2 0.4 0.1 0.8 0.1 1.1 0.2 0.9 0.2 1.6 0.6 2 1 0.5 0.8 0.8 1.4 0.8 2.3" clip-path="url(#SVGID_52_)" fill="#fff"/>
		
		
			<defs>
				<rect id="SVGID_53_" x="-1.4" width="434" height="88.6"/>
			</defs>
			<clipPath id="SVGID_54_">
				<use overflow="visible" xlink:href="#SVGID_53_"/>
			</clipPath>
			<path d="m174 69.5c0 0.5-0.4 0.9-0.9 0.9h-1v-15.7h1.9v5.7c0.6-0.5 1.2-0.9 1.8-1.2s1.3-0.4 1.9-0.4c1.2 0 2.1 0.4 2.8 1.1 0.6 0.7 1 1.8 1 3.2v7.3h-1.9v-6.4c0-0.5 0-1-0.1-1.5s-0.2-0.8-0.3-1.1c-0.2-0.3-0.4-0.5-0.7-0.6s-1.2-0.2-1.2-0.2c-0.5 0-1.1 0.1-1.6 0.4-0.6 0.3-1.1 0.6-1.6 1l-0.1 7.5z" clip-path="url(#SVGID_54_)" fill="#fff"/>
		
		
			<defs>
				<rect id="SVGID_55_" x="-1.4" width="434" height="88.6"/>
			</defs>
			<clipPath id="SVGID_56_">
				<use overflow="visible" xlink:href="#SVGID_55_"/>
			</clipPath>
			<path d="m195.1 65h-8.3c0 0.7 0.1 1.3 0.3 1.8s0.5 0.9 0.9 1.3c0.3 0.3 0.8 0.6 1.3 0.7 0.5 0.2 1 0.2 1.6 0.2 0.8 0 1.5-0.2 2.3-0.5s1.3-0.6 1.7-0.9h0.1v2.1c-0.6 0.3-1.3 0.5-2 0.7s-1.4 0.3-2.1 0.3c-1.9 0-3.3-0.5-4.4-1.5s-1.6-2.5-1.6-4.3 0.5-3.3 1.5-4.4 2.3-1.6 4-1.6c1.5 0 2.7 0.4 3.5 1.3s1.2 2.2 1.2 3.8v1zm-1.9-1.5c0-1-0.3-1.8-0.8-2.3s-1.2-0.8-2.3-0.8c-1 0-1.8 0.3-2.4 0.9s-0.9 1.3-1 2.2h6.5z" clip-path="url(#SVGID_56_)" fill="#fff"/>
		
		
			<defs>
				<rect id="SVGID_57_" x="-1.4" width="434" height="88.6"/>
			</defs>
			<clipPath id="SVGID_58_">
				<use overflow="visible" xlink:href="#SVGID_57_"/>
			</clipPath>
			<path d="m198.8 60c0-0.5 0.4-0.9 0.9-0.9h1v1.3c0.6-0.5 1.2-0.9 1.8-1.2s1.2-0.4 1.9-0.4c0.8 0 1.4 0.2 2 0.5 0.5 0.3 0.9 0.8 1.2 1.4 0.8-0.6 1.5-1.1 2.1-1.4s1.3-0.4 2-0.4c1.2 0 2.2 0.4 2.7 1.1 0.6 0.8 0.9 1.8 0.9 3.2v7.3h-1.9v-6.5c0-0.5 0-1-0.1-1.4 0-0.5-0.1-0.8-0.3-1.1s-0.4-0.5-0.7-0.7-0.7-0.2-1.2-0.2-1.1 0.1-1.6 0.4-1.1 0.6-1.6 1v0.5 0.6 7.2h-1.9v-6.3c0-0.5 0-1-0.1-1.4 0-0.5-0.1-0.8-0.3-1.1s-0.4-0.5-0.7-0.7c-0.3-0.1-0.7-0.2-1.2-0.2s-1 0.1-1.6 0.4c-0.5 0.3-1 0.6-1.6 1v8.4h-1.9v-10.4z" clip-path="url(#SVGID_58_)" fill="#fff"/>
		
		
			<defs>
				<rect id="SVGID_59_" x="-1.4" width="434" height="88.6"/>
			</defs>
			<clipPath id="SVGID_60_">
				<use overflow="visible" xlink:href="#SVGID_59_"/>
			</clipPath>
			<path d="m219.3 60c0-0.5 0.4-0.9 0.9-0.9h1v1.3c0.6-0.5 1.2-0.9 1.8-1.2s1.2-0.4 1.9-0.4c0.8 0 1.4 0.2 2 0.5 0.5 0.3 0.9 0.8 1.2 1.4 0.8-0.6 1.5-1.1 2.1-1.4s1.3-0.4 2-0.4c1.2 0 2.2 0.4 2.7 1.1 0.6 0.8 0.9 1.8 0.9 3.2v7.3h-1.9v-6.5c0-0.5 0-1-0.1-1.4 0-0.5-0.1-0.8-0.3-1.1s-0.4-0.5-0.7-0.7-0.7-0.2-1.2-0.2-1.1 0.1-1.6 0.4-1.1 0.6-1.6 1v0.5s0 0.4 0 0.6v7.2h-1.9v-6.3c0-0.5 0-1-0.1-1.4 0-0.5-0.1-0.8-0.3-1.1s-0.4-0.5-0.7-0.7c-0.3-0.1-0.7-0.2-1.2-0.2s-1 0.1-1.6 0.4c-0.5 0.3-1 0.6-1.6 1v8.4h-1.9l0.2-10.4z" clip-path="url(#SVGID_60_)" fill="#fff"/>
		
		
			<defs>
				<rect id="SVGID_61_" x="-1.4" width="434" height="88.6"/>
			</defs>
			<clipPath id="SVGID_62_">
				<use overflow="visible" xlink:href="#SVGID_61_"/>
			</clipPath>
			<path d="m249.4 65h-8.3c0 0.7 0.1 1.3 0.3 1.8s0.5 0.9 0.9 1.3c0.3 0.3 0.8 0.6 1.2 0.7 0.5 0.2 1 0.2 1.6 0.2 0.8 0 1.5-0.2 2.3-0.5s1.3-0.6 1.7-0.9h0.1v2.1c-0.6 0.3-1.3 0.5-2 0.7s-1.4 0.3-2.1 0.3c-1.9 0-3.3-0.5-4.4-1.5s-1.6-2.5-1.6-4.3 0.5-3.3 1.5-4.4 2.3-1.6 4-1.6c1.5 0 2.7 0.4 3.5 1.3s1.2 2.2 1.2 3.8l0.1 1zm-1.8-1.5c0-1-0.3-1.8-0.8-2.3s-1.2-0.8-2.3-0.8c-1 0-1.8 0.3-2.4 0.9s-0.9 1.3-1 2.2h6.5z" clip-path="url(#SVGID_62_)" fill="#fff"/>
		
		
			<defs>
				<rect id="SVGID_63_" x="-1.4" width="434" height="88.6"/>
			</defs>
			<clipPath id="SVGID_64_">
				<use overflow="visible" xlink:href="#SVGID_63_"/>
			</clipPath>
			<path d="m262.7 70.4h-1.9v-1.2c-0.5 0.5-1.1 0.8-1.7 1.1s-1.2 0.4-1.9 0.4c-1.4 0-2.4-0.5-3.2-1.6-0.8-1-1.2-2.5-1.2-4.3 0-1 0.1-1.8 0.4-2.6s0.6-1.4 1.1-1.9 1-0.9 1.6-1.2 1.2-0.4 1.9-0.4c0.6 0 1.1 0.1 1.6 0.2s0.9 0.3 1.4 0.6v-4.9h1.9v15.8zm-1.9-2.8v-6.5c-0.5-0.2-1-0.4-1.4-0.5s-0.8-0.1-1.3-0.1c-1.1 0-1.9 0.4-2.5 1.1s-0.9 1.8-0.9 3.2c0 1.3 0.2 2.4 0.7 3.1s1.2 1 2.2 1c0.5 0 1.1-0.1 1.6-0.4 0.6-0.2 1.1-0.5 1.6-0.9" clip-path="url(#SVGID_64_)" fill="#fff"/>
		
		
			<defs>
				<rect id="SVGID_65_" x="-1.4" width="434" height="88.6"/>
			</defs>
			<clipPath id="SVGID_66_">
				<use overflow="visible" xlink:href="#SVGID_65_"/>
			</clipPath>
			<path d="m276.3 65h-8.3c0 0.7 0.1 1.3 0.3 1.8s0.5 0.9 0.9 1.3c0.4 0.3 0.8 0.6 1.3 0.7 0.5 0.2 1 0.2 1.6 0.2 0.8 0 1.5-0.2 2.3-0.5s1.3-0.6 1.7-0.9h0.1v2.1c-0.6 0.3-1.3 0.5-2 0.7s-1.4 0.3-2.1 0.3c-1.9 0-3.3-0.5-4.4-1.5s-1.6-2.5-1.6-4.3 0.5-3.3 1.5-4.4 2.3-1.6 4-1.6c1.5 0 2.7 0.4 3.5 1.3s1.2 2.2 1.2 3.8v1zm-1.9-1.5c0-1-0.3-1.8-0.8-2.3s-1.2-0.8-2.3-0.8c-1 0-1.8 0.3-2.4 0.9s-0.9 1.3-1 2.2h6.5z" clip-path="url(#SVGID_66_)" fill="#fff"/>
		
		
			<defs>
				<rect id="SVGID_67_" x="-1.4" width="434" height="88.6"/>
			</defs>
			<clipPath id="SVGID_68_">
				<use overflow="visible" xlink:href="#SVGID_67_"/>
			</clipPath>
			<path d="m288.5 67.2c0 1-0.4 1.9-1.3 2.5-0.8 0.7-2 1-3.5 1-0.8 0-1.6-0.1-2.3-0.3s-1.3-0.4-1.8-0.6v-2.1h0.1c0.6 0.5 1.3 0.8 2 1.1s1.5 0.4 2.1 0.4c0.8 0 1.5-0.1 2-0.4s0.7-0.7 0.7-1.3c0-0.4-0.1-0.8-0.4-1s-0.8-0.4-1.5-0.6c-0.3-0.1-0.6-0.1-1.1-0.2l-1.2-0.3c-1-0.3-1.7-0.7-2.1-1.2s-0.6-1.1-0.6-1.9c0-0.5 0.1-0.9 0.3-1.3s0.5-0.8 0.9-1.1 0.9-0.6 1.4-0.8c0.6-0.2 1.2-0.3 2-0.3 0.7 0 1.4 0.1 2.1 0.2 0.7 0.2 1.3 0.4 1.7 0.6v2c-0.5-0.4-1.1-0.7-1.8-0.9s-1.4-0.4-2-0.4c-0.7 0-1.3 0.1-1.8 0.4s-0.7 0.7-0.7 1.2 0.1 0.8 0.4 1 0.7 0.4 1.4 0.6c0.4 0.1 0.7 0.2 1.2 0.2 0.4 0.1 0.8 0.1 1.1 0.2 0.9 0.2 1.6 0.6 2 1 0.5 0.8 0.7 1.4 0.7 2.3" clip-path="url(#SVGID_68_)" fill="#fff"/>
		
		
			<defs>
				<rect id="SVGID_69_" x="-1.4" width="434" height="88.6"/>
			</defs>
			<clipPath id="SVGID_70_">
				<use overflow="visible" xlink:href="#SVGID_69_"/>
			</clipPath>
			<path d="m309.2 64.8c0 1.8-0.5 3.3-1.4 4.3-0.9 1.1-2.2 1.6-3.8 1.6s-2.9-0.5-3.8-1.6-1.4-2.5-1.4-4.3 0.5-3.3 1.4-4.4 2.2-1.6 3.8-1.6 2.8 0.5 3.8 1.6 1.4 2.5 1.4 4.4m-1.9 0c0-1.5-0.3-2.6-0.9-3.3s-1.4-1.1-2.4-1.1-1.8 0.4-2.4 1.1-0.9 1.8-0.9 3.3c0 1.4 0.3 2.5 0.9 3.2s1.4 1.1 2.4 1.1 1.8-0.4 2.4-1.1 0.9-1.8 0.9-3.2" clip-path="url(#SVGID_70_)" fill="#fff"/>
		
		
			<defs>
				<rect id="SVGID_71_" x="-1.4" width="434" height="88.6"/>
			</defs>
			<clipPath id="SVGID_72_">
				<use overflow="visible" xlink:href="#SVGID_71_"/>
			</clipPath>
			<path d="m312.4 60c0-0.5 0.4-0.9 0.9-0.9h1v1.7c0.8-0.6 1.4-1 2-1.3s1.2-0.4 1.8-0.4h0.7c0.2 0 0.4 0 0.7 0.1v2h-0.1c-0.3-0.1-0.6-0.1-0.8-0.1-0.3 0-0.9-0.1-0.9-0.1-0.6 0-1.2 0.1-1.7 0.4s-1.1 0.6-1.6 1v8h-1.9l-0.1-10.4z" clip-path="url(#SVGID_72_)" fill="#fff"/>
		
		
			<defs>
				<rect id="SVGID_73_" x="-1.4" width="434" height="88.6"/>
			</defs>
			<clipPath id="SVGID_74_">
				<use overflow="visible" xlink:href="#SVGID_73_"/>
			</clipPath>
			<path d="m331.2 69.1c0 1.9-0.4 3.3-1.3 4.2s-2.2 1.3-4 1.3c-0.6 0-1.2 0-1.7-0.1-0.6-0.1-1.1-0.2-1.7-0.4v-1.9h0.1c0.3 0.1 0.8 0.3 1.5 0.5s1.4 0.3 2 0.3 1.2-0.1 1.6-0.2c0.4-0.2 0.8-0.4 1-0.7s0.4-0.6 0.5-0.9c0.1-0.4 0.1-0.8 0.1-1.2v-1c-0.6 0.5-1.1 0.8-1.6 1s-1.2 0.3-2 0.3c-1.3 0-2.4-0.5-3.2-1.5s-1.2-2.3-1.2-4.1c0-1 0.1-1.8 0.4-2.5s0.6-1.3 1.1-1.8c0.4-0.5 1-0.8 1.6-1.1s1.3-0.4 1.9-0.4c0.7 0 1.2 0.1 1.6 0.2s0.9 0.3 1.4 0.6l0.1-0.5h1.8v9.9zm-1.9-1.8v-6.2c-0.5-0.2-1-0.4-1.4-0.5s-0.9-0.1-1.3-0.1c-1 0-1.9 0.3-2.5 1s-0.9 1.7-0.9 3.1c0 1.3 0.2 2.2 0.7 2.9s1.2 1 2.2 1c0.6 0 1.1-0.1 1.7-0.3 0.5-0.2 1.1-0.5 1.5-0.9" clip-path="url(#SVGID_74_)" fill="#fff"/>
		
		
			<defs>
				<rect id="SVGID_75_" x="-1.4" width="434" height="88.6"/>
			</defs>
			<clipPath id="SVGID_76_">
				<use overflow="visible" xlink:href="#SVGID_75_"/>
			</clipPath>
			<path d="m343.8 70.4h-1.9v-1.2c-0.2 0.1-0.4 0.3-0.7 0.5s-0.6 0.4-0.8 0.5c-0.3 0.2-0.7 0.3-1.1 0.4s-0.9 0.2-1.4 0.2c-1 0-1.9-0.3-2.6-1s-1.1-1.5-1.1-2.6c0-0.9 0.2-1.6 0.5-2.1 0.4-0.5 0.9-0.9 1.6-1.2s1.5-0.5 2.5-0.6 2-0.2 3.1-0.2v-0.3c0-0.4-0.1-0.8-0.2-1.1s-0.4-0.5-0.6-0.7c-0.3-0.2-0.6-0.3-1-0.3s-0.8-0.1-1.2-0.1c-0.5 0-1.1 0.1-1.7 0.2s-1.3 0.3-1.9 0.6h-0.1v-1.9c0.4-0.1 0.9-0.2 1.6-0.3s1.4-0.2 2.1-0.2c0.8 0 1.5 0.1 2.1 0.2s1.1 0.4 1.5 0.7 0.7 0.7 1 1.2c0.2 0.5 0.3 1.1 0.3 1.8v7.5zm-1.9-2.8v-3.1c-0.6 0-1.3 0.1-2 0.2-0.8 0.1-1.4 0.2-1.9 0.3-0.5 0.2-1 0.4-1.3 0.7s-0.5 0.8-0.5 1.3c0 0.7 0.2 1.1 0.6 1.5 0.4 0.3 1 0.5 1.8 0.5 0.7 0 1.3-0.1 1.8-0.4s1-0.6 1.5-1" clip-path="url(#SVGID_76_)" fill="#fff"/>
		
		
			<defs>
				<rect id="SVGID_77_" x="-1.4" width="434" height="88.6"/>
			</defs>
			<clipPath id="SVGID_78_">
				<use overflow="visible" xlink:href="#SVGID_77_"/>
			</clipPath>
			<path d="m363.4 57.2h-2.1v-2h2.1v2zm-0.2 13.2h-1.9v-11.3h1.9v11.3z" clip-path="url(#SVGID_78_)" fill="#fff"/>
		
		
			<defs>
				<rect id="SVGID_79_" x="-1.4" width="434" height="88.6"/>
			</defs>
			<clipPath id="SVGID_80_">
				<use overflow="visible" xlink:href="#SVGID_79_"/>
			</clipPath>
			<path d="m375.7 67.2c0 1-0.4 1.9-1.3 2.5-0.8 0.7-2 1-3.5 1-0.8 0-1.6-0.1-2.3-0.3s-1.3-0.4-1.8-0.6v-2.1h0.1c0.6 0.5 1.3 0.8 2 1.1s1.4 0.4 2.1 0.4c0.8 0 1.5-0.1 2-0.4s0.7-0.7 0.7-1.3c0-0.4-0.1-0.8-0.4-1-0.2-0.2-0.7-0.4-1.5-0.6-0.3-0.1-0.6-0.1-1.1-0.2l-1.2-0.3c-1-0.3-1.7-0.7-2.1-1.2s-0.6-1.1-0.6-1.9c0-0.5 0.1-0.9 0.3-1.3s0.5-0.8 0.9-1.1 0.9-0.6 1.4-0.8c0.6-0.2 1.2-0.3 2-0.3 0.7 0 1.4 0.1 2.1 0.2 0.7 0.2 1.3 0.4 1.7 0.6v2h-0.1c-0.5-0.4-1.1-0.7-1.8-0.9s-1.4-0.4-2-0.4c-0.7 0-1.3 0.1-1.8 0.4s-0.7 0.7-0.7 1.2 0.1 0.8 0.4 1 0.7 0.4 1.4 0.6c0.4 0.1 0.7 0.2 1.2 0.2 0.4 0.1 0.8 0.1 1.1 0.2 0.9 0.2 1.6 0.6 2 1 0.5 0.8 0.8 1.4 0.8 2.3" clip-path="url(#SVGID_80_)" fill="#fff"/>
		
		
			<defs>
				<rect id="SVGID_81_" x="-1.4" width="434" height="88.6"/>
			</defs>
			<clipPath id="SVGID_82_">
				<use overflow="visible" xlink:href="#SVGID_81_"/>
			</clipPath>
			<path d="m388.4 70.4h-1.9v-1.2c-0.2 0.1-0.4 0.3-0.7 0.5s-0.6 0.4-0.8 0.5c-0.3 0.2-0.7 0.3-1.1 0.4s-0.9 0.2-1.5 0.2c-1 0-1.9-0.3-2.6-1s-1.1-1.5-1.1-2.6c0-0.9 0.2-1.6 0.5-2.1 0.4-0.5 0.9-0.9 1.6-1.2s1.5-0.5 2.5-0.6 2-0.2 3.1-0.2v-0.3c0-0.4-0.1-0.8-0.2-1.1s-0.4-0.5-0.7-0.7-0.6-0.3-1-0.3-0.8-0.1-1.2-0.1c-0.5 0-1.1 0.1-1.7 0.2s-1.3 0.3-1.9 0.6h-0.1v-1.9c0.4-0.1 0.9-0.2 1.6-0.3s1.4-0.2 2.1-0.2c0.8 0 1.5 0.1 2.1 0.2s1.1 0.4 1.5 0.7 0.7 0.7 1 1.2c0.2 0.5 0.3 1.1 0.3 1.8l0.2 7.5zm-1.9-2.8v-3.1c-0.6 0-1.3 0.1-2 0.2-0.8 0.1-1.4 0.2-1.9 0.3-0.5 0.2-1 0.4-1.3 0.7s-0.5 0.8-0.5 1.3c0 0.7 0.2 1.1 0.6 1.5 0.4 0.3 1 0.5 1.8 0.5 0.7 0 1.3-0.1 1.8-0.4s1-0.6 1.5-1" clip-path="url(#SVGID_82_)" fill="#fff"/>
		
		
			<defs>
				<rect id="SVGID_83_" x="-1.4" width="434" height="88.6"/>
			</defs>
			<clipPath id="SVGID_84_">
				<use overflow="visible" xlink:href="#SVGID_83_"/>
			</clipPath>
			<path d="m400.8 67.2c0 1-0.4 1.9-1.3 2.5-0.9 0.7-2 1-3.5 1-0.8 0-1.6-0.1-2.3-0.3s-1.3-0.4-1.8-0.6v-2.1h0.1c0.6 0.5 1.3 0.8 2 1.1s1.4 0.4 2.1 0.4c0.8 0 1.5-0.1 2-0.4s0.7-0.7 0.7-1.3c0-0.4-0.1-0.8-0.4-1s-0.7-0.4-1.5-0.6c-0.3-0.1-0.6-0.1-1.1-0.2l-1.2-0.3c-1-0.3-1.7-0.7-2.1-1.2s-0.6-1.1-0.6-1.9c0-0.5 0.1-0.9 0.3-1.3s0.5-0.8 0.9-1.1 0.9-0.6 1.4-0.8c0.6-0.2 1.2-0.3 2-0.3 0.7 0 1.4 0.1 2 0.2 0.7 0.2 1.3 0.4 1.7 0.6v2h-0.1c-0.5-0.4-1.1-0.7-1.8-0.9s-1.4-0.4-2-0.4c-0.7 0-1.3 0.1-1.8 0.4s-0.7 0.7-0.7 1.2 0.1 0.8 0.4 1 0.7 0.4 1.4 0.6c0.4 0.1 0.7 0.2 1.2 0.2 0.4 0.1 0.8 0.1 1.1 0.2 0.9 0.2 1.6 0.6 2.1 1 0.6 0.8 0.8 1.4 0.8 2.3" clip-path="url(#SVGID_84_)" fill="#fff"/>
		
		
			<defs>
				<rect id="SVGID_85_" x="-1.4" width="434" height="88.6"/>
			</defs>
			<clipPath id="SVGID_86_">
				<use overflow="visible" xlink:href="#SVGID_85_"/>
			</clipPath>
			<path d="m406.8 70.7c0 1.3-0.3 2.3-1 3s-1.6 1-2.7 1c-0.3 0-0.6 0-1.1-0.1-0.4-0.1-0.8-0.1-1.1-0.2v-1.8h0.1c0.2 0.1 0.5 0.2 0.8 0.2 0.3 0.1 0.6 0.1 0.9 0.1 0.5 0 0.9-0.1 1.2-0.2s0.5-0.3 0.7-0.6c0.1-0.3 0.2-0.6 0.3-1 0-0.4 0.1-0.8 0.1-1.4v-10.7h1.9v11.7zm0.1-13.5h-2.1v-2h2.1v2z" clip-path="url(#SVGID_86_)" fill="#fff"/>
		
		
			<defs>
				<rect id="SVGID_87_" x="-1.4" width="434" height="88.6"/>
			</defs>
			<clipPath id="SVGID_88_">
				<use overflow="visible" xlink:href="#SVGID_87_"/>
			</clipPath>
			<path d="m420.2 64.8c0 1.8-0.5 3.3-1.4 4.3-0.9 1.1-2.2 1.6-3.8 1.6s-2.9-0.5-3.8-1.6-1.4-2.5-1.4-4.3 0.5-3.3 1.4-4.4 2.2-1.6 3.8-1.6 2.8 0.5 3.8 1.6 1.4 2.5 1.4 4.4m-1.9 0c0-1.5-0.3-2.6-0.9-3.3s-1.4-1.1-2.4-1.1-1.8 0.4-2.4 1.1-0.9 1.8-0.9 3.3c0 1.4 0.3 2.5 0.9 3.2s1.4 1.1 2.4 1.1 1.8-0.4 2.4-1.1 0.9-1.8 0.9-3.2" clip-path="url(#SVGID_88_)" fill="#fff"/>
		
		
			<defs>
				<rect id="SVGID_89_" x="-1.4" width="434" height="88.6"/>
			</defs>
			<clipPath id="SVGID_90_">
				<use overflow="visible" xlink:href="#SVGID_89_"/>
			</clipPath>
			<path d="m347.8 60c0-0.5 0.4-0.9 0.9-0.9h1v1.3c0.6-0.5 1.2-0.9 1.8-1.2s1.3-0.4 2-0.4c1.2 0 2.1 0.4 2.8 1.1 0.6 0.7 1 1.8 1 3.2v7.3h-1.9v-6.4c0-0.5 0-1-0.1-1.5s-0.2-0.8-0.3-1.1c-0.2-0.3-0.4-0.5-0.7-0.6s-0.7-0.2-1.2-0.2-1.1 0.1-1.6 0.4c-0.6 0.3-1.1 0.6-1.6 1v8.4h-1.9v-10.4z" clip-path="url(#SVGID_90_)" fill="#fff"/>
		
		
			<defs>
				<rect id="SVGID_91_" x="-1.4" width="434" height="88.6"/>
			</defs>
			<clipPath id="SVGID_92_">
				<use overflow="visible" xlink:href="#SVGID_91_"/>
			</clipPath>
			<path d="m423.2 60c0-0.5 0.4-0.9 0.9-0.9h1v1.3c0.6-0.5 1.2-0.9 1.8-1.2s1.3-0.4 2-0.4c1.2 0 2.1 0.4 2.8 1.1 0.6 0.7 1 1.8 1 3.2v7.3h-1.9v-6.4c0-0.5 0-1-0.1-1.5s-0.2-0.8-0.3-1.1c-0.2-0.3-0.4-0.5-0.7-0.6s-0.7-0.2-1.2-0.2-1.1 0.1-1.6 0.4c-0.6 0.3-1.1 0.6-1.6 1v8.4h-1.9v-10.4z" clip-path="url(#SVGID_92_)" fill="#fff"/>
		</g>
	
</g>
</svg>
